# xmcd CD database file
#
# Track frame offsets:
#	150
#	13265
#	24233
#	35720
#	48383
#	59798
#	76320
#	87486
#	97880
#	111628
#	126569
#	139955
#	154115
#	166888
#	176990
#	185360
#	195370
#	204675
#	214419
#	224549
#	234677
#	245451
#	256856
#	268663
#	280366
#
# Disc length: 3914 seconds
#
# Revision: 3
# Processed by: cddbd v1.5.2PL0 Copyright (c) Steve Scherf et al.
# Submitted via: CDex 1.70beta2
#
DISCID=860f4819
DTITLE=Various Artist - 012 - Top Country -  Country Stars
DYEAR=1996
DGENRE=Country
TTITLE0=Merle Haggard - Swingin' Doors
TTITLE1=Faron Young - Riverboat
TTITLE2=Don Gibson - Just One Time
TTITLE3=Charlie Rich - Behind Closed Doors
TTITLE4=Connie Smith - Nobody But A Fool Whould Love You
TTITLE5=Moe Bandy - Cool Water
TTITLE6=Porter Wagoner - Eat, Drink And Be Mery
TTITLE7=Jean Shephard - If Theardrops Where Silver
TTITLE8=Stonewall Jackson - BJ The DJ
TTITLE9=Johnny Paycheck - A Good Year For The Roses
TTITLE10=Ferlin Husky - Room Full Of Roses
TTITLE11=Jeanne Seely - Don't Touch Me 
TTITLE12=Patsy Cline - Fingerprints
TTITLE13=Ray Price - Make The World Go Away
TTITLE14=Roger Miller - In The Summertime (You Don't Want My Love)
TTITLE15=Hank Locklin - Geisha Girl
TTITLE16=Kitty Wells - I'll Reposess My Heart
TTITLE17=Bill Phillips - The Company You Keep
TTITLE18=Warner Mack - It Takes Alot Of Money
TTITLE19=Jim Ed Brown - Southern Loving
TTITLE20=Jimmy C Newman - DJ For A Day
TTITLE21=Bill Charliste - No Help Wanted
TTITLE22=Del Wood - Down Yonder
TTITLE23=Carl Smith - Loose Talk
TTITLE24=Lynn Anderson - Top Of The World
EXTD=YEAR: 1996
EXTT0=
EXTT1=
EXTT2=
EXTT3=
EXTT4=
EXTT5=
EXTT6=
EXTT7=
EXTT8=
EXTT9=
EXTT10=
EXTT11=
EXTT12=
EXTT13=
EXTT14=
EXTT15=
EXTT16=
EXTT17=
EXTT18=
EXTT19=
EXTT20=
EXTT21=
EXTT22=
EXTT23=
EXTT24=
PLAYORDER=
